# xmcd
#
# Track frame offsets: 
#        150
#        23038
#        39274
#        57100
#        76902
#        101303
#        110271
#        123041
#        140521
#        161199
#        187039
#        205761
#        227729
#        244656
#        268637
#
# Disc length: 3838 seconds
#
# Revision: 0
# Processed by: cddbd v1.5.2PL0 Copyright (c) Steve Scherf et al.
# Submitted via: ExactAudioCopy v1.0b3
#
DISCID=bb0efc0f
DTITLE=Drop's - IN LIVE SOMEWHERE
DYEAR=2016
DGENRE=Blues
TTITLE0=グッド・バイ
TTITLE1=STRANGE BIRD
TTITLE2=moderato
TTITLE3=真夜中の時限爆弾
TTITLE4=ハイウェイ・クラブ
TTITLE5=LONELY BABY DOLL
TTITLE6=アイスクリーム・シアター
TTITLE7=月光
TTITLE8=十二月
TTITLE9=ドーナツ
TTITLE10=星の恋人
TTITLE11=未来
TTITLE12=どこかへ
TTITLE13=かもめのBaby
TTITLE14=コール・ミー
EXTD=
EXTT0=
EXTT1=
EXTT2=
EXTT3=
EXTT4=
EXTT5=
EXTT6=
EXTT7=
EXTT8=
EXTT9=
EXTT10=
EXTT11=
EXTT12=
EXTT13=
EXTT14=
PLAYORDER=
